<svg width="87" height="87" viewBox="0 0 87 87" fill="none" xmlns="http://www.w3.org/2000/svg">
<g clip-path="url(#clip0)">
<path d="M86.9149 25.5782C86.711 20.9556 85.9635 17.7776 84.8927 15.0238C83.788 12.1007 82.0884 9.48362 79.8617 7.30807C77.6862 5.09865 75.0519 3.38184 72.1626 2.29439C69.3929 1.22354 66.2315 0.476007 61.6088 0.272194C56.9517 0.0511193 55.4732 0 43.6613 0C31.8494 0 30.371 0.0511193 25.7311 0.254933C21.1084 0.458746 17.9304 1.20695 15.1773 2.27713C12.2535 3.38184 9.63645 5.08139 7.4609 7.30807C5.25148 9.48362 3.53533 12.1179 2.44722 15.0072C1.37638 17.7776 0.628839 20.9383 0.425026 25.561C0.203951 30.2181 0.152832 31.6966 0.152832 43.5085C0.152832 55.3204 0.203951 56.7988 0.407765 61.4387C0.611578 66.0614 1.35978 69.2394 2.43063 71.9932C3.53533 74.9163 5.25148 77.5334 7.4609 79.7089C9.63645 81.9183 12.2708 83.6351 15.16 84.7226C17.9304 85.7934 21.0912 86.541 25.7145 86.7448C30.3537 86.9493 31.8328 86.9997 43.6447 86.9997C55.4566 86.9997 56.9351 86.9493 61.575 86.7448C66.1976 86.541 69.3756 85.7934 72.1288 84.7226C77.9756 82.4621 82.5983 77.8394 84.8588 71.9932C85.929 69.2228 86.6772 66.0614 86.881 61.4387C87.0848 56.7988 87.1359 55.3204 87.1359 43.5085C87.1359 31.6966 87.1187 30.2181 86.9149 25.5782ZM79.0803 61.0988C78.8931 65.3477 78.1794 67.6421 77.5846 69.1717C76.1227 72.9618 73.1146 75.9699 69.3245 77.4318C67.7949 78.0266 65.4839 78.7403 61.2517 78.9269C56.6629 79.1313 55.2866 79.1818 43.6786 79.1818C32.0705 79.1818 30.677 79.1313 26.1048 78.9269C21.856 78.7403 19.5616 78.0266 18.032 77.4318C16.1459 76.7347 14.4291 75.63 13.0356 74.1854C11.5909 72.7746 10.4862 71.0751 9.78915 69.189C9.19431 67.6594 8.48063 65.3477 8.29407 61.1161C8.0896 56.5273 8.03914 55.1504 8.03914 43.5423C8.03914 31.9343 8.0896 30.5408 8.29407 25.9693C8.48063 21.7204 9.19431 19.426 9.78915 17.8964C10.4862 16.0096 11.5909 14.2935 13.0528 12.8993C14.4629 11.4547 16.1625 10.35 18.0492 9.65358C19.5788 9.05874 21.8905 8.34506 26.1221 8.15784C30.7109 7.95403 32.0878 7.90291 43.6952 7.90291C55.3205 7.90291 56.6967 7.95403 61.2689 8.15784C65.5178 8.34506 67.8122 9.05874 69.3418 9.65358C71.2279 10.35 72.9447 11.4547 74.3382 12.8993C75.7828 14.3101 76.8875 16.0096 77.5846 17.8964C78.1794 19.426 78.8931 21.737 79.0803 25.9693C79.2841 30.558 79.3353 31.9343 79.3353 43.5423C79.3353 55.1504 79.2841 56.5101 79.0803 61.0988Z" fill="#F4F4F4"/>
<path d="M43.6616 21.1594C31.3232 21.1594 21.3125 31.1695 21.3125 43.5085C21.3125 55.8475 31.3232 65.8576 43.6616 65.8576C56.0006 65.8576 66.0107 55.8475 66.0107 43.5085C66.0107 31.1695 56.0006 21.1594 43.6616 21.1594ZM43.6616 58.0058C35.6571 58.0058 29.1643 51.5137 29.1643 43.5085C29.1643 35.5034 35.6571 29.0112 43.6616 29.0112C51.6667 29.0112 58.1589 35.5034 58.1589 43.5085C58.1589 51.5137 51.6667 58.0058 43.6616 58.0058V58.0058Z" fill="#F4F4F4"/>
<path d="M72.1124 20.2758C72.1124 23.1571 69.7762 25.4933 66.8943 25.4933C64.013 25.4933 61.6768 23.1571 61.6768 20.2758C61.6768 17.3939 64.013 15.0583 66.8943 15.0583C69.7762 15.0583 72.1124 17.3939 72.1124 20.2758V20.2758Z" fill="#F4F4F4"/>
</g>
<defs>
<clipPath id="clip0">
<rect width="87" height="87" fill="white"/>
</clipPath>
</defs>
</svg>
