<svg width="87" height="87" viewBox="0 0 87 87" fill="none" xmlns="http://www.w3.org/2000/svg">
<g clip-path="url(#clip0)">
<path d="M86.9781 87.0001V86.9964H86.9998V55.0892C86.9998 39.4799 83.6395 27.4558 65.3912 27.4558C56.6187 27.4558 50.7317 32.2698 48.3283 36.8337H48.0746V28.9131H30.7725V86.9964H48.7887V58.2357C48.7887 50.6631 50.2242 43.3406 59.6021 43.3406C68.8422 43.3406 68.98 51.9826 68.98 58.7214V87.0001H86.9781Z" fill="#F4F4F4"/>
<path d="M1.43555 28.9165H19.4735V86.9999H1.43555V28.9165Z" fill="#F4F4F4"/>
<path d="M10.4473 0C4.67988 0 0 4.67988 0 10.4473C0 16.2146 4.67988 20.9924 10.4473 20.9924C16.2146 20.9924 20.8945 16.2146 20.8945 10.4473C20.8909 4.67988 16.211 0 10.4473 0V0Z" fill="#F4F4F4"/>
</g>
<defs>
<clipPath id="clip0">
<rect width="87" height="87" fill="white"/>
</clipPath>
</defs>
</svg>
